<?xml version="1.0" encoding="UTF-8"?>
<svg width="90px" height="90px" viewBox="0 0 90 90" version="1.1" xmlns="http://www.w3.org/2000/svg" xmlns:xlink="http://www.w3.org/1999/xlink">
    <!-- Generator: Sketch 50.2 (55047) - http://www.bohemiancoding.com/sketch -->
    <title>pstd-xcps</title>
    <desc>Created with Sketch.</desc>
    <defs></defs>
    <g id="Page-10" stroke="none" stroke-width="1" fill="none" fill-rule="evenodd">
        <g id="拍摄团队" transform="translate(-490.000000, -2054.000000)" fill-rule="nonzero">
            <g id="Group-20" transform="translate(490.000000, 2054.000000)">
                <g id="pstd-xcps" transform="translate(8.500000, 15.000000)">
                    <path d="M35.8408404,21.700667 C30.0203794,21.700667 25.2873847,26.4048811 25.2873847,32.1884508 C25.2873847,37.9721077 30.0203794,42.6789383 35.8408404,42.6789383 C41.658685,42.6789383 46.3942088,37.9721077 46.3942088,32.1884508 C46.3942088,26.4048811 41.658685,21.700667 35.8408404,21.700667 Z" id="Shape" fill="#FF0043"></path>
                    <path d="M72.1712338,50.865853 C72.1528317,50.9156519 72.1214348,50.9630961 72.0950091,51.0076623 L72.0950091,50.5979328 L72.0950091,12.3422992 C72.0950091,9.89831259 70.096248,7.91001707 67.6404875,7.91001707 L54.308145,7.91001707 L54.142788,7.91001707 L54.0665633,7.76297497 L52.322553,4.2959729 C52.1230082,3.85205565 50.3394903,0.059310767 47.9098939,0.059310767 L24.2289605,0.0593106818 C21.7442451,0.0593106818 19.9136317,4.08317156 19.8374071,4.25524406 L18.0723783,7.76297489 L17.9961536,7.91001699 L17.8307966,7.91001699 L4.49583767,7.91001699 C2.0401644,7.91001699 0.0412287784,9.89831259 0.0412287784,12.3422991 L0.0412287784,55.5069245 C0.0412287784,57.9523064 2.0401644,59.940602 4.49583767,59.940602 L67.6405746,59.940602 C70.0963351,59.940602 72.0950962,57.9523064 72.0950962,55.5069245 L72.0950962,51.054932 C72.139924,50.9918766 72.1922522,50.9341411 72.2316728,50.8658529 L72.1712338,50.865853 Z M35.8408404,47.3620467 C27.4305716,47.3620467 20.5859614,40.5539789 20.5859614,32.1884507 C20.5859614,23.8230098 27.4305717,17.0176457 35.8408404,17.0176457 C44.2510219,17.0176457 51.0931902,23.8230098 51.0931902,32.1884507 C51.0931901,40.5539789 44.2510219,47.3620467 35.8408404,47.3620467 Z M59.1882689,21.0795317 C57.2313703,21.0795317 55.6370185,19.4852672 55.6370185,17.5271475 C55.6370185,15.5664114 57.2313703,13.9733679 59.1882689,13.9733679 C61.1476096,13.9733679 62.7418741,15.5664114 62.7418741,17.5271475 C62.7418742,19.4852672 61.1476097,21.0795317 59.1882689,21.0795317 Z" id="Shape" fill="#333333"></path>
                    <polygon id="Shape" fill="#333333" points="66.8866132 50.8004055 66.892753 50.8004055 66.892753 50.7634641"></polygon>
                </g>
            </g>
        </g>
    </g>
</svg>