<?xml version="1.0" encoding="UTF-8"?>
<svg width="90px" height="90px" viewBox="0 0 90 90" version="1.1" xmlns="http://www.w3.org/2000/svg" xmlns:xlink="http://www.w3.org/1999/xlink">
    <!-- Generator: Sketch 50.2 (55047) - http://www.bohemiancoding.com/sketch -->
    <title>pstd-ydjj</title>
    <desc>Created with Sketch.</desc>
    <defs></defs>
    <g id="Page-10" stroke="none" stroke-width="1" fill="none" fill-rule="evenodd">
        <g id="拍摄团队" transform="translate(-915.000000, -2054.000000)" fill-rule="nonzero">
            <g id="Group-21" transform="translate(915.000000, 2054.000000)">
                <g id="Group-16" transform="translate(7.500000, 9.439542)">
                    <g id="影片-2-copy" transform="translate(0.795161, 6.421791)" fill="#333333">
                        <polygon id="Shape" points="70.4706308 21.1386665 73.3160627 21.1386665 73.3160627 58.1704937 70.4706308 58.1704937"></polygon>
                        <polygon id="Shape" points="63.4863888 21.1386665 66.2455955 21.1386665 66.2455955 58.1704937 63.4863888 58.1704937"></polygon>
                        <polygon id="Shape" points="7.09510212 0.0384022826 9.85430877 0.0384022826 9.85430877 58.1704937 7.09510212 58.1704937"></polygon>
                        <path d="M66.2455955,55.3115384 L7.09510212,55.3115384 L7.09510212,2.89735763 L49.7048394,2.89735763 L49.7048394,18.1386665 C49.7048394,19.7955207 51.0479852,21.1386665 52.7048394,21.1386665 L66.2455955,21.1386665 L66.2455955,55.3115384 Z M31.0657102,18.3909071 L31.0657102,38.139472 C31.0657102,38.6917568 31.5134255,39.139472 32.0657102,39.139472 C32.2881092,39.139472 32.5041621,39.0653344 32.679704,38.9287828 L45.374136,29.0539621 C45.8100603,28.7148627 45.8885524,28.0865818 45.549453,27.6506575 C45.498502,27.5851582 45.4395963,27.5262555 45.3740943,27.475308 L32.6796623,17.6015638 C32.2437201,17.2624874 31.6154433,17.3410127 31.2763669,17.776955 C31.1398357,17.9524898 31.0657102,18.1685262 31.0657102,18.3909071 Z" id="Combined-Shape"></path>
                        <polygon id="Shape" points="64.8659922 24.122935 71.9364593 24.122935 71.9364593 26.9818904 64.8659922 26.9818904"></polygon>
                        <polygon id="Shape" points="64.8659922 31.2270058 71.9364593 31.2270058 71.9364593 34.0859611 64.8659922 34.0859611"></polygon>
                        <polygon id="Shape" points="64.8659922 38.3310765 71.9364593 38.3310765 71.9364593 41.1900319 64.8659922 41.1900319"></polygon>
                        <polygon id="Shape" points="64.8659922 45.4351473 71.9364593 45.4351473 71.9364593 48.2074675 64.8659922 48.2074675"></polygon>
                        <polygon id="Shape" points="64.8659922 52.452583 71.9364593 52.452583 71.9364593 55.3115384 64.8659922 55.3115384"></polygon>
                        <polygon id="Shape" points="0.0246349988 0.0384022826 2.87006693 0.0384022826 2.87006693 58.1704937 0.0246349988 58.1704937 0.0246349988 0.0384022826"></polygon>
                        <polygon id="Shape" points="1.40423833 2.89735763 8.47470544 2.89735763 8.47470544 5.75631299 1.40423833 5.75631299"></polygon>
                        <polygon id="Shape" points="1.40423833 10.0014284 8.47470544 10.0014284 8.47470544 12.7737487 1.40423833 12.7737487"></polygon>
                        <polygon id="Shape" points="1.40423833 17.0188642 8.47470544 17.0188642 8.47470544 19.8778195 1.40423833 19.8778195"></polygon>
                        <polygon id="Shape" points="1.40423833 24.122935 8.47470544 24.122935 8.47470544 26.9818904 1.40423833 26.9818904"></polygon>
                        <polygon id="Shape" points="1.40423833 31.2270058 8.47470544 31.2270058 8.47470544 34.0859611 1.40423833 34.0859611"></polygon>
                        <polygon id="Shape" points="1.40423833 38.3310765 8.47470544 38.3310765 8.47470544 41.1900319 1.40423833 41.1900319"></polygon>
                        <polygon id="Shape" points="1.40423833 45.4351473 8.47470544 45.4351473 8.47470544 48.2074675 1.40423833 48.2074675"></polygon>
                        <polygon id="Shape" points="1.40423833 52.452583 8.47470544 52.452583 8.47470544 55.3115384 1.40423833 55.3115384"></polygon>
                    </g>
                    <g id="Group-15" transform="translate(66.236136, 12.500000) rotate(-90.000000) translate(-66.236136, -12.500000) translate(53.736136, 0.500000)" fill="#FF0043">
                        <path d="M6.03584236,23.9676572 C4.46905055,23.9676572 2.99241144,23.3459144 1.87949186,22.2112338 C0.775898427,21.0889881 0.169699215,19.6092403 0.169699215,18.0424484 C0.169699215,16.4756566 0.782115855,15.0083437 1.89503543,13.9140764 C2.99862887,12.8291352 4.46905055,12.2322622 6.03584236,12.2322622 C9.26890482,12.2322622 11.9019855,14.8622341 11.9019855,18.0984053 C11.9019855,21.3345765 9.26890482,23.9676572 6.03584236,23.9676572 Z M6.03584236,14.8404731 C5.15607632,14.8404731 4.33537585,15.1731055 3.72295921,15.7730873 C3.11365129,16.3730691 2.77480147,17.178226 2.77480147,18.0424484 C2.77480147,18.9222145 3.11676,19.7522411 3.73850278,20.38331 C4.35713685,21.0112702 5.17161989,21.3594462 6.03584236,21.3594462 C7.832679,21.3594462 9.29688325,19.8983506 9.29688325,18.0984053 C9.29688325,16.2984599 7.832679,14.8404731 6.03584236,14.8404731 Z M19.1173105,23.9676572 C15.884248,23.9676572 13.2511673,21.3376852 13.2511673,18.101514 C13.2511673,14.8653428 15.8811393,12.2353709 19.1173105,12.2353709 C22.3503729,12.2353709 24.9834536,14.8653428 24.9834536,18.101514 C24.9834536,21.3376852 22.3534817,23.9676572 19.1173105,23.9676572 Z M19.1173105,14.8404731 C17.3204738,14.8404731 15.8562696,16.3015687 15.8562696,18.101514 C15.8562696,19.9014594 17.3173651,21.3625549 19.1173105,21.3625549 C20.9141471,21.3625549 22.3783514,19.9014594 22.3783514,18.101514 C22.3783514,16.3015687 20.9141471,14.8404731 19.1173105,14.8404731 Z" id="Shape"></path>
                        <path d="M9.01088157,14.9026474 C8.7279886,14.9026474 8.44198692,14.809386 8.20261595,14.6228631 C7.63683002,14.1752083 7.5435686,13.3576166 7.98811469,12.7918307 L11.538266,8.30595649 C11.9859208,7.74017056 12.8035125,7.64690914 13.3692985,8.09145523 C13.9350844,8.53911003 14.0283458,9.35670179 13.5837997,9.92248772 L10.0336484,14.4083619 C9.77562519,14.7347768 9.39325338,14.9026474 9.01088157,14.9026474 Z M14.7837633,7.22412405 C14.503979,7.22412405 14.2210861,7.13397134 13.9817151,6.94744851 C13.4159292,6.50601113 13.3133416,5.68531066 13.7578877,5.11952473 L17.2303211,0.674063843 C17.6717585,0.108277912 18.492459,0.0056903531 19.0582449,0.450236442 C19.6240308,0.891673817 19.7266184,1.71237429 19.2820723,2.27816022 L15.8096389,6.72362111 C15.5516156,7.05314478 15.1692438,7.22412405 14.7837633,7.22412405 Z" id="Shape"></path>
                        <path d="M16.7702315,14.9026474 C16.384751,14.9026474 16.0023791,14.7316681 15.7443559,14.4052532 L6.19749548,2.28126893 C5.75294939,1.715483 5.84931952,0.897891245 6.41510546,0.450236442 C6.98089139,0.0056903531 7.79848314,0.102060484 8.24613795,0.667846415 L17.7929984,12.7918307 C18.2375444,13.3576166 18.1411743,14.1752083 17.5753884,14.6228631 C17.3360174,14.8124947 17.0531244,14.9026474 16.7702315,14.9026474 Z" id="Shape"></path>
                    </g>
                </g>
            </g>
        </g>
    </g>
</svg>