<?xml version="1.0" encoding="UTF-8"?>
<svg width="90px" height="90px" viewBox="0 0 90 90" version="1.1" xmlns="http://www.w3.org/2000/svg" xmlns:xlink="http://www.w3.org/1999/xlink">
    <!-- Generator: Sketch 50.2 (55047) - http://www.bohemiancoding.com/sketch -->
    <title>pstd-sscp</title>
    <desc>Created with Sketch.</desc>
    <defs></defs>
    <g id="Page-10" stroke="none" stroke-width="1" fill="none" fill-rule="evenodd">
        <g id="拍摄团队" transform="translate(-1340.000000, -2054.000000)" fill-rule="nonzero">
            <g id="照片" transform="translate(1352.000000, 2071.861334)">
                <path d="M58.0827033,2.33139 C58.0827033,1.05320104 57.036174,0.00615021845 55.7579851,0.00615021845 L2.34564881,0.00615021845 C1.0667893,0.00615021845 0.0211541505,1.05320112 0.0211541505,2.33139 L0.0211541505,44.1494932 C0.0211541505,45.4277567 1.06686379,46.4733918 2.34564881,46.4733918 L4.33036609,46.4733918 C5.60922561,46.4733918 6.65500981,45.4278312 6.65500981,44.1494932 L6.65500981,9.08208138 C6.65500981,7.80381794 7.70079393,6.7581083 8.97965352,6.7581083 L55.7580597,6.7581083 C57.0362487,6.7581083 58.0827779,5.7110574 58.0827779,4.43286852 L58.0827779,2.33139 L58.0827033,2.33139 Z" id="Shape" fill="#FF0043"></path>
                <path d="M62.3663575,11.2357187 L13.6069597,11.2357187 C12.1102999,11.2357187 10.8967879,12.447964 10.8967879,13.9445493 L10.8967879,57.2861369 C10.8967879,58.78153 12.1102999,59.9938499 13.6069597,59.9938499 L62.3685183,59.9938499 C63.8651782,59.9938499 65.0758587,58.78153 65.0758587,57.2861369 L65.0758587,13.9446238 C65.074145,12.447964 63.8627192,11.2357187 62.3663575,11.2357187 Z M56.9480257,51.8657932 L19.0231306,51.8658678 L19.0231306,38.3249933 L27.1517088,30.1970112 L40.6956382,43.7402701 L48.8243654,35.6148215 L56.9507082,43.7402701 L56.9507082,51.8658678 L56.9480257,51.8658678 L56.9480257,51.8657932 Z M51.5299919,30.1970113 C48.5357036,30.1970113 46.1141936,27.7713285 46.1141936,24.7805423 C46.1141936,21.7843167 48.5357037,19.3625085 51.5299919,19.3625085 C54.5262176,19.3625085 56.9480257,21.7843167 56.9480257,24.7805423 C56.9480257,27.7713285 54.5262175,30.1970113 51.5299919,30.1970113 Z" id="Shape" fill="#333333"></path>
            </g>
        </g>
    </g>
</svg>