<?xml version="1.0" encoding="UTF-8"?>
<svg width="53px" height="53px" viewBox="0 0 53 53" version="1.1" xmlns="http://www.w3.org/2000/svg" xmlns:xlink="http://www.w3.org/1999/xlink">
    <!-- Generator: Sketch 55.2 (78181) - https://sketchapp.com -->
    <title>icon_01</title>
    <desc>Created with Sketch.</desc>
    <g id="首页" stroke="none" stroke-width="1" fill="none" fill-rule="evenodd">
        <g id="云拍摄官网首页-PC" transform="translate(-457.000000, -2982.000000)">
            <g id="核心优势" transform="translate(344.000000, 2890.000000)">
                <g id="icon_01" transform="translate(113.000000, 92.000000)">
                    <g id="gx" transform="translate(6.000000, 6.000000)">
                        <path d="M10.2640268,27.24392 C9.8304698,27.24392 9.01624161,27.53992 7.59557047,28.95112 C6.40711409,30.1769867 5.67181208,31.76632 5.50912752,33.4604533 C5.44067114,33.8692533 5.40389262,34.2825867 5.39932886,34.6967592 C7.53221477,34.70312 9.59234899,33.9260533 11.1834899,32.5148533 C12.8710067,30.83832 12.9265772,30.0316533 12.9037584,29.8225867 C12.8715436,29.43912 12.5555705,28.9684533 11.8790604,28.29512 C11.149396,27.53992 10.6975839,27.2444533 10.2640268,27.24392 L10.2640268,27.24392 Z M5.14134228,37.6793955 C4.67691275,37.67992 4.21248322,37.6561867 3.7504698,37.6084533 C3.09114094,37.50152 2.57436242,36.9881867 2.46644295,36.3332533 C2.45758389,36.2780533 1.64308725,30.67912 5.46805369,26.83992 C6.20738255,26.0716533 7.0538255,25.4124533 7.98187919,24.8833867 C8.6790604,24.4860533 9.4661745,24.2716533 10.2696644,24.25992 C12.0621477,24.25992 13.3002685,25.4884533 13.964698,26.14872 L13.9692617,26.1529867 C15.0315436,27.04472 15.7115436,28.3052533 15.8707383,29.6780533 C15.9418792,31.1833867 15.1166443,32.7548533 13.2702013,34.62312 C10.5907383,37.2777867 7.02590604,37.6777867 5.13973154,37.6777867 L5.14134228,37.6793955 Z M7.15610738,17.79112 C11.1577181,17.7708533 14.9985235,19.3561867 17.8079195,22.1876533 C20.0089933,24.37272 21.478255,27.1793867 22.0154362,30.2241867 C22.2962416,31.77352 22.3204027,33.3580533 22.0868456,34.9148533 C22.1569128,34.8604533 22.222953,34.8009867 22.2844295,34.7372533 C22.3480537,34.67112 22.4165101,34.6097867 22.4889933,34.55352 C25.1042953,31.9689867 26.3853691,28.3380533 25.9665772,24.6969867 C25.887651,24.0713867 26.2291275,23.4676533 26.8081879,23.2092533 C28.5899329,22.3316533 30.2108725,21.1641867 31.6038926,19.7548533 C35.8911409,15.4996533 37.7958389,9.42072 36.6959732,3.50018667 C35.585906,3.29352 34.4578523,3.19618667 33.3284564,3.20978667 C28.4516779,3.19592 23.7724832,5.12072 20.3330201,8.55512 C18.9327517,9.95458667 17.7598658,11.56152 16.8554362,13.3185867 C16.5985235,13.8164533 16.081745,14.1292533 15.518255,14.1276533 C15.4637584,14.1276533 15.4092617,14.1249867 15.3550336,14.11912 C14.9099329,14.08232 14.4393289,14.0484533 13.9998658,14.0484533 C10.795302,14.03112 7.72013423,15.3025867 5.47422819,17.57272 C5.34322148,17.69672 5.22134228,17.83032 5.11073826,17.9721867 C5.78348993,17.83512 6.46939597,17.77432 7.15610738,17.79112 L7.15610738,17.79112 Z M19.5985235,39.8279208 L19.5485906,39.8279208 C19.1555705,39.82712 18.7791946,39.6700533 18.502953,39.3916533 C18.0656376,38.9481867 17.9491275,38.28232 18.2108725,37.71832 C20.2637584,33.1716533 19.2879195,27.83832 15.7558389,24.2996533 C13.5021477,22.0396533 10.4318121,20.7689867 7.22939597,20.7708533 L7.22,20.7708533 C5.50671141,20.76872 3.81248322,21.1281867 2.24979866,21.8265867 C2.04765101,21.9153867 1.82885906,21.96152 1.60791946,21.96152 C1.21677852,21.96392 0.840939597,21.8108533 0.563892617,21.53672 C0.126577181,21.0932533 0.0103355705,20.4276533 0.271543624,19.86392 C1.02456376,18.2164533 2.06563758,16.7145867 3.34590604,15.4276533 C6.16308725,12.60552 10.0001342,11.0212533 14.0006711,11.0273867 L14.6594631,11.0273867 C18.4433557,4.31298667 25.5845638,0.154601402 33.3314094,0.154601402 C35.0081879,0.146586667 36.6798658,0.341786667 38.309396,0.73672 C38.8554362,0.861786667 39.281745,1.28525333 39.4079195,1.82738667 C41.130604,9.01645333 38.9663087,16.5777867 33.694094,21.7916533 C32.305906,23.17912 30.7287248,24.3665867 29.0084564,25.31912 C29.1966443,29.52152 27.6033557,33.6100533 24.6151678,36.5913867 C23.333557,37.8796533 21.8181208,38.9161867 20.1488591,39.6460533 C19.9902013,39.7644533 19.7971812,39.8279208 19.5985235,39.8279208 L19.5985235,39.8279208 Z" id="Fill-1" fill="#424242"></path>
                        <path d="M33.9143893,7.81424 C33.9143893,9.17637333 32.802443,10.2809067 31.4311678,10.2809067 C30.0598926,10.2809067 28.9479463,9.17637333 28.9479463,7.81424 C28.9479463,6.45184 30.0598926,5.34757333 31.4311678,5.34757333 C32.802443,5.34757333 33.9143893,6.45184 33.9143893,7.81424 Z" id="Stroke-3" stroke="#FF0043" stroke-width="2.41610738"></path>
                    </g>
                </g>
            </g>
        </g>
    </g>
</svg>