<?xml version="1.0" encoding="UTF-8"?>
<svg width="53px" height="53px" viewBox="0 0 53 53" version="1.1" xmlns="http://www.w3.org/2000/svg" xmlns:xlink="http://www.w3.org/1999/xlink">
    <!-- Generator: Sketch 55.2 (78181) - https://sketchapp.com -->
    <title>icon_04</title>
    <desc>Created with Sketch.</desc>
    <defs>
        <polygon id="path-1" points="0.000275862069 0.156039735 39.7353392 0.156039735 39.7353392 41.6672574 0.000275862069 41.6672574"></polygon>
    </defs>
    <g id="首页" stroke="none" stroke-width="1" fill="none" fill-rule="evenodd">
        <g id="云拍摄官网首页-PC" transform="translate(-1382.000000, -2982.000000)">
            <g id="核心优势" transform="translate(344.000000, 2890.000000)">
                <g id="icon_04" transform="translate(1038.000000, 92.000000)">
                    <g id="编组" transform="translate(5.000000, 4.122940)">
                        <mask id="mask-2" fill="white">
                            <use xlink:href="#path-1"></use>
                        </mask>
                        <g id="Clip-2"></g>
                        <path d="M19.7234483,29.2032119 C12.8638621,29.2032119 6.87075862,23.4519934 6.87075862,16.5356225 C6.87075862,9.6195298 12.8638621,3.06697351 19.7234483,3.06697351 C26.5827586,3.06697351 32.5758621,9.03709272 32.5758621,16.0260596 C32.5758621,23.1607748 26.8715862,29.2032119 19.7234483,29.2032119 L19.7234483,29.2032119 Z M12.5030345,37.284457 C12.5030345,37.284457 10.6977931,35.3185232 9.10910345,33.4260199 C6.43765517,32.8433046 3.91075862,32.4066159 3.91075862,32.4066159 L7.59268966,26.0726821 C9.68675862,28.6939272 12.5750345,30.6593046 15.8964138,31.6058344 L12.5030345,37.284457 Z M36.6914483,30.4409603 C36.5468966,30.5138344 36.4028966,30.6593046 36.1863448,30.7321788 C35.6084138,31.0962715 35.4641379,31.7513046 35.7526897,32.3340199 C35.7526897,32.3340199 33.2257931,32.7707086 30.5543448,33.3531457 C28.8933793,35.3185232 27.1604138,37.2115828 27.1604138,37.2115828 L23.8390345,31.5329603 C27.1604138,30.6593046 30.0486897,28.6207748 32.0704828,25.9998079 L32.9366897,27.5287748 C33.370069,28.2569603 34.2362759,28.4755828 34.9587586,28.0386159 C35.6084138,27.601649 35.8249655,26.7279934 35.4641379,26.0726821 L33.8031724,23.233649 C34.741931,21.122245 35.4641379,18.7924967 35.4641379,16.3904305 L35.4641379,15.9531854 C35.5361379,7.50812583 28.2437241,0.155066225 19.8677241,0.155066225 C15.029931,0.155066225 10.5532414,2.77575497 7.66524138,6.6344702 C5.49917241,9.32831126 4.19931034,12.6771854 4.19931034,16.3904305 C4.19931034,16.7539669 4.19931034,17.0454636 4.27131034,17.4092781 C4.41586207,19.520404 4.92124138,21.4863377 5.86,23.306245 L0.0837241379,33.4983377 C-0.132827586,33.9355828 0.0837241379,34.5177417 0.589103448,34.590894 C2.03324138,34.8818344 4.84896552,35.3916755 7.73751724,36.0467086 C9.68675862,38.1578344 11.492,40.2692384 12.4304828,41.4343907 C12.7195862,41.7982053 13.3695172,41.7253311 13.586069,41.2883642 L18.8566897,32.1156755 L20.8784828,32.1156755 L26.1496552,41.2883642 C26.3662069,41.7253311 26.9441379,41.7982053 27.3046897,41.4343907 C28.3154483,40.3421126 30.1929655,38.1578344 31.9982069,36.0467086 C34.9587586,35.3916755 37.7024828,34.8818344 39.1463448,34.590894 C39.6517241,34.5177417 39.8682759,33.9355828 39.6517241,33.4983377 L38.2078621,31.0233974 C37.9190345,30.2954901 37.1968276,30.1497417 36.6914483,30.4409603 L36.6914483,30.4409603 Z" id="Fill-1" fill="#424242" mask="url(#mask-2)"></path>
                    </g>
                    <path d="M18.3104828,19.0022053 L21.5595862,22.2056093 L20.7653793,26.7193576 L24.8089655,24.6082318 L28.8525517,26.7193576 L28.058069,22.2056093 L31.3071724,19.0022053 L26.8307586,18.3471722 L24.8089655,14.1975166 L22.7871724,18.3471722 L18.3104828,19.0022053 Z M20.3322759,29.1948543 C19.9711724,29.1948543 19.610069,29.049106 19.2492414,28.8307616 C18.6715862,28.3940728 18.3827586,27.7387616 18.5270345,27.0105762 L19.2492414,22.9337947 L16.2886897,20.0216093 C15.7833103,19.5120464 15.6387586,18.7838609 15.8555862,18.1285497 C16.0721379,17.4735166 16.6495172,16.9639536 17.2994483,16.8910795 L21.4153103,16.3086424 L23.2205517,12.5956755 C23.5093793,11.9403642 24.1590345,11.5765497 24.8809655,11.5765497 C25.6031724,11.5765497 26.1808276,11.9403642 26.541931,12.5956755 L28.3468966,16.3086424 L32.4627586,16.8910795 C33.1846897,16.9639536 33.6903448,17.4735166 33.9066207,18.1285497 C34.1234483,18.7838609 33.9788966,19.5120464 33.4735172,20.0216093 L30.5129655,22.9337947 L31.2351724,27.0105762 C31.3797241,27.7387616 31.0906207,28.3940728 30.5129655,28.8307616 C29.9355862,29.2674503 29.2131034,29.2674503 28.5634483,28.9762318 L24.8089655,27.0105762 L21.1264828,28.9762318 C20.909931,29.1219801 20.6208276,29.1948543 20.3322759,29.1948543 L20.3322759,29.1948543 Z" id="Fill-3" fill="#FF0043"></path>
                </g>
            </g>
        </g>
    </g>
</svg>