<?xml version="1.0" encoding="UTF-8"?>
<svg width="62px" height="62px" viewBox="0 0 62 62" version="1.1" xmlns="http://www.w3.org/2000/svg" xmlns:xlink="http://www.w3.org/1999/xlink">
    <!-- Generator: Sketch 54.1 (76490) - https://sketchapp.com -->
    <title>icon_03</title>
    <desc>Created with Sketch.</desc>
    <g id="视频拍摄落地页" stroke="none" stroke-width="1" fill="none" fill-rule="evenodd">
        <g id="视频拍摄制作服务" transform="translate(-999.000000, -640.000000)">
            <g id="icon_03" transform="translate(999.000000, 640.000000)">
                <g id="Page-1" transform="translate(7.000000, 6.000000)">
                    <path d="M23.2937853,36.5217391 C23.2937853,39.4030435 18.228829,41.7391304 11.979661,41.7391304 C5.73049303,41.7391304 0.665536723,39.4030435 0.665536723,36.5217391 C0.665536723,33.6404348 5.73049303,31.3043478 11.979661,31.3043478 C18.228829,31.3043478 23.2937853,33.6404348 23.2937853,36.5217391" id="Fill-1" fill="#F0F1F2"></path>
                    <path d="M23.2937853,36.5217391 C23.2937853,39.4030435 18.228829,41.7391304 11.979661,41.7391304 C5.73049303,41.7391304 0.665536723,39.4030435 0.665536723,36.5217391 C0.665536723,33.6404348 5.73049303,31.3043478 11.979661,31.3043478 C18.228829,31.3043478 23.2937853,33.6404348 23.2937853,36.5217391 Z" id="Stroke-3" stroke="#FF0043" stroke-width="1.3"></path>
                    <path d="M23.2937853,31.6521739 C23.2937853,34.5334783 18.228829,36.8695652 11.979661,36.8695652 C5.73049303,36.8695652 0.665536723,34.5334783 0.665536723,31.6521739 C0.665536723,28.7708696 5.73049303,26.4347826 11.979661,26.4347826 C18.228829,26.4347826 23.2937853,28.7708696 23.2937853,31.6521739" id="Fill-5" fill="#F0F1F2"></path>
                    <path d="M23.2937853,31.6521739 C23.2937853,34.5334783 18.228829,36.8695652 11.979661,36.8695652 C5.73049303,36.8695652 0.665536723,34.5334783 0.665536723,31.6521739 C0.665536723,28.7708696 5.73049303,26.4347826 11.979661,26.4347826 C18.228829,26.4347826 23.2937853,28.7708696 23.2937853,31.6521739 Z" id="Stroke-7" stroke="#FF0043" stroke-width="1.3"></path>
                    <path d="M23.2937853,26.0869565 C23.2937853,28.9682609 18.228829,31.3043478 11.979661,31.3043478 C5.73049303,31.3043478 0.665536723,28.9682609 0.665536723,26.0869565 C0.665536723,23.2056522 5.73049303,20.8695652 11.979661,20.8695652 C18.228829,20.8695652 23.2937853,23.2056522 23.2937853,26.0869565" id="Fill-9" fill="#F0F1F2"></path>
                    <path d="M23.2937853,26.0869565 C23.2937853,28.9682609 18.228829,31.3043478 11.979661,31.3043478 C5.73049303,31.3043478 0.665536723,28.9682609 0.665536723,26.0869565 C0.665536723,23.2056522 5.73049303,20.8695652 11.979661,20.8695652 C18.228829,20.8695652 23.2937853,23.2056522 23.2937853,26.0869565 Z" id="Stroke-11" stroke="#FF0043" stroke-width="1.3"></path>
                    <path d="M23.2937853,21.2173913 C23.2937853,24.0986957 18.228829,26.4347826 11.979661,26.4347826 C5.73049303,26.4347826 0.665536723,24.0986957 0.665536723,21.2173913 C0.665536723,18.336087 5.73049303,16 11.979661,16 C18.228829,16 23.2937853,18.336087 23.2937853,21.2173913" id="Fill-13" fill="#F0F1F2"></path>
                    <path d="M23.2937853,21.2173913 C23.2937853,24.0986957 18.228829,26.4347826 11.979661,26.4347826 C5.73049303,26.4347826 0.665536723,24.0986957 0.665536723,21.2173913 C0.665536723,18.336087 5.73049303,16 11.979661,16 C18.228829,16 23.2937853,18.336087 23.2937853,21.2173913 Z" id="Stroke-15" stroke="#FF0043" stroke-width="1.3"></path>
                    <path d="M23.2937853,15.6521739 C23.2937853,18.5334783 18.228829,20.8695652 11.979661,20.8695652 C5.73049303,20.8695652 0.665536723,18.5334783 0.665536723,15.6521739 C0.665536723,12.7708696 5.73049303,10.4347826 11.979661,10.4347826 C18.228829,10.4347826 23.2937853,12.7708696 23.2937853,15.6521739" id="Fill-17" fill="#F0F1F2"></path>
                    <path d="M23.2937853,15.6521739 C23.2937853,18.5334783 18.228829,20.8695652 11.979661,20.8695652 C5.73049303,20.8695652 0.665536723,18.5334783 0.665536723,15.6521739 C0.665536723,12.7708696 5.73049303,10.4347826 11.979661,10.4347826 C18.228829,10.4347826 23.2937853,12.7708696 23.2937853,15.6521739 Z" id="Stroke-19" stroke="#FF0043" stroke-width="1.3"></path>
                    <path d="M23.2937853,10.7826087 C23.2937853,13.663913 18.228829,16 11.979661,16 C5.73049303,16 0.665536723,13.663913 0.665536723,10.7826087 C0.665536723,7.90130435 5.73049303,5.56521739 11.979661,5.56521739 C18.228829,5.56521739 23.2937853,7.90130435 23.2937853,10.7826087" id="Fill-21" fill="#F0F1F2"></path>
                    <path d="M23.2937853,10.7826087 C23.2937853,13.663913 18.228829,16 11.979661,16 C5.73049303,16 0.665536723,13.663913 0.665536723,10.7826087 C0.665536723,7.90130435 5.73049303,5.56521739 11.979661,5.56521739 C18.228829,5.56521739 23.2937853,7.90130435 23.2937853,10.7826087 Z" id="Stroke-23" stroke="#FF0043" stroke-width="1.3"></path>
                    <path d="M23.2937853,5.91304348 C23.2937853,8.79434783 18.228829,11.1304348 11.979661,11.1304348 C5.73049303,11.1304348 0.665536723,8.79434783 0.665536723,5.91304348 C0.665536723,3.03173913 5.73049303,0.695652174 11.979661,0.695652174 C18.228829,0.695652174 23.2937853,3.03173913 23.2937853,5.91304348" id="Fill-25" fill="#F0F1F2"></path>
                    <path d="M23.2937853,5.91304348 C23.2937853,8.79434783 18.228829,11.1304348 11.979661,11.1304348 C5.73049303,11.1304348 0.665536723,8.79434783 0.665536723,5.91304348 C0.665536723,3.03173913 5.73049303,0.695652174 11.979661,0.695652174 C18.228829,0.695652174 23.2937853,3.03173913 23.2937853,5.91304348 Z" id="Stroke-27" stroke="#FF0043" stroke-width="1.3"></path>
                    <path d="M47.9186441,37.9130435 C47.9186441,40.7943478 42.8536878,43.1304348 36.6045198,43.1304348 C30.3553518,43.1304348 25.2903955,40.7943478 25.2903955,37.9130435 C25.2903955,35.0317391 30.3553518,32.6956522 36.6045198,32.6956522 C42.8536878,32.6956522 47.9186441,35.0317391 47.9186441,37.9130435" id="Fill-29" fill="#F0F1F2"></path>
                    <path d="M47.9186441,37.9130435 C47.9186441,40.7943478 42.8536878,43.1304348 36.6045198,43.1304348 C30.3553518,43.1304348 25.2903955,40.7943478 25.2903955,37.9130435 C25.2903955,35.0317391 30.3553518,32.6956522 36.6045198,32.6956522 C42.8536878,32.6956522 47.9186441,35.0317391 47.9186441,37.9130435 Z" id="Stroke-31" stroke="#FF0043" stroke-width="1.3"></path>
                    <path d="M47.9186441,32.3478261 C47.9186441,35.2291304 42.8536878,37.5652174 36.6045198,37.5652174 C30.3553518,37.5652174 25.2903955,35.2291304 25.2903955,32.3478261 C25.2903955,29.4665217 30.3553518,27.1304348 36.6045198,27.1304348 C42.8536878,27.1304348 47.9186441,29.4665217 47.9186441,32.3478261" id="Fill-33" fill="#F0F1F2"></path>
                    <path d="M47.9186441,32.3478261 C47.9186441,35.2291304 42.8536878,37.5652174 36.6045198,37.5652174 C30.3553518,37.5652174 25.2903955,35.2291304 25.2903955,32.3478261 C25.2903955,29.4665217 30.3553518,27.1304348 36.6045198,27.1304348 C42.8536878,27.1304348 47.9186441,29.4665217 47.9186441,32.3478261 Z" id="Stroke-35" stroke="#FF0043" stroke-width="1.3"></path>
                    <path d="M47.9186441,27.4782609 C47.9186441,30.3595652 42.8536878,32.6956522 36.6045198,32.6956522 C30.3553518,32.6956522 25.2903955,30.3595652 25.2903955,27.4782609 C25.2903955,24.5969565 30.3553518,22.2608696 36.6045198,22.2608696 C42.8536878,22.2608696 47.9186441,24.5969565 47.9186441,27.4782609" id="Fill-37" fill="#F0F1F2"></path>
                    <path d="M47.9186441,27.4782609 C47.9186441,30.3595652 42.8536878,32.6956522 36.6045198,32.6956522 C30.3553518,32.6956522 25.2903955,30.3595652 25.2903955,27.4782609 C25.2903955,24.5969565 30.3553518,22.2608696 36.6045198,22.2608696 C42.8536878,22.2608696 47.9186441,24.5969565 47.9186441,27.4782609 Z" id="Stroke-39" stroke="#FF0043" stroke-width="1.3"></path>
                    <path d="M47.9186441,22.6086957 C47.9186441,25.49 42.8536878,27.826087 36.6045198,27.826087 C30.3553518,27.826087 25.2903955,25.49 25.2903955,22.6086957 C25.2903955,19.7273913 30.3553518,17.3913043 36.6045198,17.3913043 C42.8536878,17.3913043 47.9186441,19.7273913 47.9186441,22.6086957" id="Fill-41" fill="#F0F1F2"></path>
                    <path d="M47.9186441,22.6086957 C47.9186441,25.49 42.8536878,27.826087 36.6045198,27.826087 C30.3553518,27.826087 25.2903955,25.49 25.2903955,22.6086957 C25.2903955,19.7273913 30.3553518,17.3913043 36.6045198,17.3913043 C42.8536878,17.3913043 47.9186441,19.7273913 47.9186441,22.6086957 Z" id="Stroke-43" stroke="#FF0043" stroke-width="1.3"></path>
                    <path d="M47.9186441,17.0434783 C47.9186441,19.9247826 42.8536878,22.2608696 36.6045198,22.2608696 C30.3553518,22.2608696 25.2903955,19.9247826 25.2903955,17.0434783 C25.2903955,14.1621739 30.3553518,11.826087 36.6045198,11.826087 C42.8536878,11.826087 47.9186441,14.1621739 47.9186441,17.0434783" id="Fill-45" fill="#F0F1F2"></path>
                    <path d="M47.9186441,17.0434783 C47.9186441,19.9247826 42.8536878,22.2608696 36.6045198,22.2608696 C30.3553518,22.2608696 25.2903955,19.9247826 25.2903955,17.0434783 C25.2903955,14.1621739 30.3553518,11.826087 36.6045198,11.826087 C42.8536878,11.826087 47.9186441,14.1621739 47.9186441,17.0434783 Z" id="Stroke-47" stroke="#FF0043" stroke-width="1.3"></path>
                    <path d="M47.9186441,12.173913 C47.9186441,15.0552174 42.8536878,17.3913043 36.6045198,17.3913043 C30.3553518,17.3913043 25.2903955,15.0552174 25.2903955,12.173913 C25.2903955,9.2926087 30.3553518,6.95652174 36.6045198,6.95652174 C42.8536878,6.95652174 47.9186441,9.2926087 47.9186441,12.173913" id="Fill-49" fill="#F0F1F2"></path>
                    <path d="M47.9186441,12.173913 C47.9186441,15.0552174 42.8536878,17.3913043 36.6045198,17.3913043 C30.3553518,17.3913043 25.2903955,15.0552174 25.2903955,12.173913 C25.2903955,9.2926087 30.3553518,6.95652174 36.6045198,6.95652174 C42.8536878,6.95652174 47.9186441,9.2926087 47.9186441,12.173913 Z" id="Stroke-51" stroke="#FF0043" stroke-width="1.3"></path>
                    <path d="M29.2836158,42.7826087 C29.2836158,45.663913 24.2186595,48 17.9694915,48 C11.7203235,48 6.65536723,45.663913 6.65536723,42.7826087 C6.65536723,39.9013043 11.7203235,37.5652174 17.9694915,37.5652174 C24.2186595,37.5652174 29.2836158,39.9013043 29.2836158,42.7826087" id="Fill-53" fill="#F0F1F2"></path>
                    <path d="M29.2836158,42.7826087 C29.2836158,45.663913 24.2186595,48 17.9694915,48 C11.7203235,48 6.65536723,45.663913 6.65536723,42.7826087 C6.65536723,39.9013043 11.7203235,37.5652174 17.9694915,37.5652174 C24.2186595,37.5652174 29.2836158,39.9013043 29.2836158,42.7826087 Z" id="Stroke-55" stroke="#FF0043" stroke-width="1.3"></path>
                    <path d="M29.2836158,37.9130435 C29.2836158,40.7943478 24.2186595,43.1304348 17.9694915,43.1304348 C11.7203235,43.1304348 6.65536723,40.7943478 6.65536723,37.9130435 C6.65536723,35.0317391 11.7203235,32.6956522 17.9694915,32.6956522 C24.2186595,32.6956522 29.2836158,35.0317391 29.2836158,37.9130435" id="Fill-57" fill="#F0F1F2"></path>
                    <path d="M29.2836158,37.9130435 C29.2836158,40.7943478 24.2186595,43.1304348 17.9694915,43.1304348 C11.7203235,43.1304348 6.65536723,40.7943478 6.65536723,37.9130435 C6.65536723,35.0317391 11.7203235,32.6956522 17.9694915,32.6956522 C24.2186595,32.6956522 29.2836158,35.0317391 29.2836158,37.9130435 Z" id="Stroke-59" stroke="#FF0043" stroke-width="1.3"></path>
                    <path d="M29.2836158,32.3478261 C29.2836158,35.2291304 24.2186595,37.5652174 17.9694915,37.5652174 C11.7203235,37.5652174 6.65536723,35.2291304 6.65536723,32.3478261 C6.65536723,29.4665217 11.7203235,27.1304348 17.9694915,27.1304348 C24.2186595,27.1304348 29.2836158,29.4665217 29.2836158,32.3478261" id="Fill-61" fill="#F0F1F2"></path>
                    <path d="M29.2836158,32.3478261 C29.2836158,35.2291304 24.2186595,37.5652174 17.9694915,37.5652174 C11.7203235,37.5652174 6.65536723,35.2291304 6.65536723,32.3478261 C6.65536723,29.4665217 11.7203235,27.1304348 17.9694915,27.1304348 C24.2186595,27.1304348 29.2836158,29.4665217 29.2836158,32.3478261 Z" id="Stroke-63" stroke="#FF0043" stroke-width="1.3"></path>
                    <path d="M29.2836158,27.4782609 C29.2836158,30.3595652 24.2186595,32.6956522 17.9694915,32.6956522 C11.7203235,32.6956522 6.65536723,30.3595652 6.65536723,27.4782609 C6.65536723,24.5969565 11.7203235,22.2608696 17.9694915,22.2608696 C24.2186595,22.2608696 29.2836158,24.5969565 29.2836158,27.4782609" id="Fill-65" fill="#F0F1F2"></path>
                    <path d="M29.2836158,27.4782609 C29.2836158,30.3595652 24.2186595,32.6956522 17.9694915,32.6956522 C11.7203235,32.6956522 6.65536723,30.3595652 6.65536723,27.4782609 C6.65536723,24.5969565 11.7203235,22.2608696 17.9694915,22.2608696 C24.2186595,22.2608696 29.2836158,24.5969565 29.2836158,27.4782609 Z" id="Stroke-67" stroke="#FF0043" stroke-width="1.5"></path>
                    <path d="M29.2836158,22.6086957 C29.2836158,25.49 24.2186595,27.826087 17.9694915,27.826087 C11.7203235,27.826087 6.65536723,25.49 6.65536723,22.6086957 C6.65536723,19.7273913 11.7203235,17.3913043 17.9694915,17.3913043 C24.2186595,17.3913043 29.2836158,19.7273913 29.2836158,22.6086957" id="Fill-69" fill="#F0F1F2"></path>
                    <path d="M29.2836158,22.6086957 C29.2836158,25.49 24.2186595,27.826087 17.9694915,27.826087 C11.7203235,27.826087 6.65536723,25.49 6.65536723,22.6086957 C6.65536723,19.7273913 11.7203235,17.3913043 17.9694915,17.3913043 C24.2186595,17.3913043 29.2836158,19.7273913 29.2836158,22.6086957 Z" id="Stroke-71" stroke="#FF0043" stroke-width="1.3"></path>
                    <polygon id="Fill-73" fill="#FF255F" points="6.65536723 5.56521739 11.6468927 4.17391304 16.6384181 5.56521739 11.6468927 6.95652174"></polygon>
                    <polygon id="Fill-75" fill="#FF255F" points="31.9457627 11.826087 36.9372881 10.4347826 41.9288136 11.826087 36.9372881 13.2173913"></polygon>
                    <polygon id="Fill-77" fill="#FF255F" points="13.3107345 22.2608696 18.3022599 20.8695652 23.2937853 22.2608696 18.3022599 23.6521739"></polygon>
                </g>
            </g>
        </g>
    </g>
</svg>