<?xml version="1.0" encoding="UTF-8"?>
<svg width="60px" height="47px" viewBox="0 0 60 47" version="1.1" xmlns="http://www.w3.org/2000/svg" xmlns:xlink="http://www.w3.org/1999/xlink">
    <!-- Generator: Sketch 54.1 (76490) - https://sketchapp.com -->
    <title>home-3-b</title>
    <desc>Created with Sketch.</desc>
    <defs>
        <linearGradient x1="3.21702013%" y1="20.4713486%" x2="100%" y2="79.9668276%" id="linearGradient-1">
            <stop stop-color="#FF618A" offset="0%"></stop>
            <stop stop-color="#FF0043" offset="100%"></stop>
        </linearGradient>
    </defs>
    <g id="扶뒬못" stroke="none" stroke-width="1" fill="none" fill-rule="evenodd">
        <g id="扶뒬못-" transform="translate(-1069.000000, -1650.000000)" fill="url(#linearGradient-1)">
            <g id="Group-16-Copy" transform="translate(770.000000, 1620.000000)">
                <path d="M336.775341,68.0652409 C342.245236,66.357103 345.882928,63.2163804 347.688525,58.642979 C348.432006,56.8246387 348.80374,54.6206229 348.80374,52.0308654 L336.377049,52.0308654 L336.377049,30.2935421 L359,30.2935421 L359,47.7329916 C359,55.6124664 357.154602,62.0454375 353.46375,67.0320981 C349.772898,72.0187587 344.21015,75.2559069 336.775341,76.7436399 L336.775341,68.0652409 Z M299.396894,68.0652409 C304.741758,66.3020018 308.340227,63.27148 310.192407,58.9735847 C311.197877,56.7144346 311.621226,54.400218 311.462468,52.0308654 L299,52.0308654 L299,30.2935421 L321.622951,30.2935421 L321.622951,47.7329916 C321.622951,55.8328712 319.731109,62.3347179 315.947368,67.2387267 C312.163628,72.1427354 306.646858,75.3110082 299.396894,76.7436399 L299.396894,68.0652409 Z" id="home-3-b"></path>
            </g>
        </g>
    </g>
</svg>