<?xml version="1.0" encoding="UTF-8"?>
<svg width="61px" height="45px" viewBox="0 0 61 45" version="1.1" xmlns="http://www.w3.org/2000/svg" xmlns:xlink="http://www.w3.org/1999/xlink">
    <!-- Generator: Sketch 52.4 (67378) - http://www.bohemiancoding.com/sketch -->
    <title>home-pj-w</title>
    <desc>Created with Sketch.</desc>
    <g id="首页定稿" stroke="none" stroke-width="1" fill="none" fill-rule="evenodd">
        <g id="1-首页1.2" transform="translate(-659.000000, -4350.000000)" fill="#FFFFFF">
            <g id="Group-20" transform="translate(0.000000, 4144.000000)">
                <g id="Group-16" transform="translate(360.000000, 176.000000)">
                    <path d="M337.40493,66.5925267 C342.96599,64.9377141 346.66431,61.8950399 348.5,57.4644128 C349.255872,55.7028382 349.633803,53.5676282 349.633803,51.0587189 L337,51.0587189 L337,30 L360,30 L360,46.8950178 C360,54.5285079 358.123845,60.760652 354.371479,65.591637 C350.619113,70.422622 344.963653,73.5587117 337.40493,75 L337.40493,66.5925267 Z M299.403509,66.5925267 C304.837454,64.8843331 308.495897,61.9484194 310.378947,57.7846975 C311.401175,55.5960745 311.83158,53.354104 311.670175,51.0587189 L299,51.0587189 L299,30 L322,30 L322,46.8950178 C322,54.7420321 320.076627,61.0409015 316.229825,65.7918149 C312.383022,70.5427284 306.774306,73.6120927 299.403509,75 L299.403509,66.5925267 Z" id="home-pj-w"></path>
                </g>
            </g>
        </g>
    </g>
</svg>