<?xml version="1.0" encoding="UTF-8"?>
<svg width="20px" height="20px" viewBox="0 0 20 20" version="1.1" xmlns="http://www.w3.org/2000/svg" xmlns:xlink="http://www.w3.org/1999/xlink">
    <!-- Generator: Sketch 52.4 (67378) - http://www.bohemiancoding.com/sketch -->
    <title>watch</title>
    <desc>Created with Sketch.</desc>
    <g id="watch" stroke="none" stroke-width="1" fill="none" fill-rule="evenodd">
        <g>
            <rect id="Rectangle" fill="#000000" opacity="0" x="0" y="0" width="20" height="20"></rect>
            <path d="M18.671875,12.2021875 C16.5553125,15.0634375 13.458125,16.8725 10,16.8725 C6.5421875,16.8725 3.445,15.0634375 1.328125,12.2021875 C0.3934375,10.9390625 0.3934375,9.0615625 1.328125,7.798125 C3.445,4.936875 6.5421875,3.1278125 10,3.1278125 C13.458125,3.1278125 16.5553125,4.936875 18.671875,7.798125 C19.6065625,9.0615625 19.6065625,10.9390625 18.671875,12.2021875 Z M17.731875,8.835625 C15.7684375,6.0025 12.9425,4.3778125 9.97875,4.3778125 C7.015,4.3778125 4.1890625,6.0025 2.225625,8.835625 C1.7578125,9.510625 1.7578125,10.4903125 2.225625,11.1653125 C4.1890625,13.9984375 7.015,15.6234375 9.97875,15.6234375 C12.9425,15.6234375 15.7684375,13.9984375 17.731875,11.165 C18.1996875,10.4903125 18.1996875,9.510625 17.731875,8.835625 Z M10.00625,14.3715625 C7.59,14.3715625 5.63125,12.4128125 5.63125,9.9965625 C5.63125,7.5803125 7.59,5.6215625 10.00625,5.6215625 C12.4225,5.6215625 14.38125,7.5803125 14.38125,9.9965625 C14.38125,12.4128125 12.4225,14.3715625 10.00625,14.3715625 Z M10.00625,6.8715625 C8.2803125,6.8715625 6.88125,8.270625 6.88125,9.9965625 C6.88125,11.7225 8.2803125,13.1215625 10.00625,13.1215625 C11.7321875,13.1215625 13.13125,11.7225 13.13125,9.9965625 C13.13125,8.270625 11.7321875,6.8715625 10.00625,6.8715625 Z" id="Shape" fill="#999999" fill-rule="nonzero"></path>
        </g>
    </g>
</svg>